<svg preserveAspectRatio="none" width="100%" height="100%" overflow="visible" style="display: block;" viewBox="0 0 29 24" fill="none" xmlns="http://www.w3.org/2000/svg">
<g id="Icon" opacity="0.8">
<path id="Vector" d="M2.41666 0C1.74536 0.0357146 1.17476 0.285717 0.704858 0.750006C0.268514 1.25001 0.0335609 1.85715 0 2.57142V6C0.0335609 6.53572 0.302088 6.82142 0.805554 6.85714H4.83334V2.57142C4.79978 1.85713 4.56482 1.25 4.12847 0.749993C3.65856 0.285704 3.08796 0.0357016 2.41666 0ZM12.8889 18.6964V15.4286H24.1667V5.14286C24.1331 3.67858 23.6632 2.46429 22.7569 1.5C21.8507 0.535719 20.7095 0.0357146 19.3333 0H5.63889C6.14236 0.714292 6.41088 1.57143 6.44445 2.57142V18.8571C6.47801 19.9286 6.84723 20.8036 7.55209 21.4821C8.29052 22.125 9.17998 22.375 10.2205 22.2321C11.026 22.0893 11.6638 21.6786 12.1337 21C12.6371 20.3214 12.8889 19.5536 12.8889 18.6964ZM14.5 17.1429V18.8571C14.4664 20.3214 13.9965 21.5357 13.0903 22.5C12.184 23.4643 11.0428 23.9643 9.66666 24H23.3611C24.9722 23.9643 26.298 23.375 27.3385 22.2321C28.4126 21.125 28.9664 19.7143 29 18C28.9664 17.4643 28.6979 17.1786 28.1944 17.1429H14.5Z" fill="var(--fill-0, white)"/>
</g>
</svg>
